[center][img]http://img585.imageshack.us/img585/9073/4ac4atheincrediblesmovi.jpg[/img]


[img]http://www.shotpix.com/images/51932040036604500224.jpg[/img]

IMDB Rating:8.0/10.0

GENRE: Animation | Action | Adventure


[img]http://www.shotpix.com/images/19842441914057550137.jpg[/img]

Complete name : The Incredibles (2004)
Format : Matroska 
Format version : Version 4 / Version 2 
File size : 747 MiB 
Duration : 1h 55mn 
Overall bit rate : 904 Kbps 
Movie name : The Incredibles (2004) 720p BRRip X264 Hindi R@J@T 
Encoded date : UTC 2013-03-05 13:59:13 
Writing application : mkvmerge v6.0.0 ('Coming Up For Air') built on Jan 20 2013 09:52:00 
Writing library : libebml v1.3.0 + libmatroska v1.4.0 


[img]http://www.shotpix.com/images/56321098596403620846.jpg[/img]

ID : 2 
Format : AVC 
Format/Info : Advanced Video Codec 
Format profile : High@L4.1 
Format settings, CABAC : Yes 
Format settings, ReFrames : 4 frames 
Codec ID : V_MPEG4/ISO/AVC 
Duration : 1h 55mn 
Bit rate : 775 Kbps 
Width : 1 280 pixels 
Height : 544 pixels 
Display aspect ratio : 2.40:1 
Frame rate mode : Constant 
Frame rate : 23.976 fps 
Color space : YUV 
Chroma subsampling : 4:2:0 
Bit depth : 8 bits 
Scan type : Progressive 
Bits/(Pixel*Frame) : 0.046 
Stream size : 626 MiB (84%) 
Title : R@J@T 
Writing library : x264 core 119 r2106 07efeb4 
Language : English 
Default : Yes 
Forced : No 


[img]http://www.shotpix.com/images/93770804060181909706.jpg[/img]

ID : 1 
Format : MPEG Audio 
Format version : Version 1 
Format profile : Layer 3 
Mode : Joint stereo 
Mode extension : MS Stereo 
Codec ID : A_MPEG/L3 
Codec ID/Hint : MP3 
Duration : 1h 55mn 
Bit rate mode : Constant 
Bit rate : 128 Kbps 
Channel(s) : 2 channels 
Sampling rate : 48.0 KHz 
Compression mode : Lossy 
Delay relative to video : -1s 0ms 
Stream size : 106 MiB (14%) 
Title : R@J@T 
Writing library : LAME3.96.1 
Language : Hindi 
Default : No 
Forced : No 


[img]http://www.shotpix.com/images/19178588247265563614.png[/img]


[img]http://img823.imageshack.us/img823/6333/vlcsnap2013030620h41m36.png[/img]
[img]http://img547.imageshack.us/img547/1414/vlcsnap2013030620h42m24.png[/img]
[img]http://img145.imageshack.us/img145/2591/vlcsnap2013030620h42m30.png[/img]
[img]http://img441.imageshack.us/img441/9540/vlcsnap2013030620h42m47.png[/img]
[img]http://img20.imageshack.us/img20/7923/vlcsnap2013030620h42m59.png[/img]
[img]http://img5.imageshack.us/img5/7134/vlcsnap2013030620h43m05.png[/img]
[img]http://img853.imageshack.us/img853/7213/vlcsnap2013030620h43m15.png[/img]


SPECIAL NOTE: CHECK SCREEN SHOTS AND SAMPLE BEFORE DOWNLOAD FOR SATISFACTION.


[img]http://www.shotpix.com/images/79493232037148808289.gif[/img]

IF YOU LIKE MY WORK PLEASE SEED THE TORRENT


[img]http://www.shotpix.com/images/68649387423808507639.jpg[/img]

R@J@T[/center]